<svg width="32" height="32" viewBox="0 0 32 32" fill="none" xmlns="http://www.w3.org/2000/svg">
<path d="M25 17.0533C24.7903 19.3229 23.9385 21.4859 22.5443 23.2891C21.1502 25.0922 19.2713 26.4611 17.1276 27.2354C14.9839 28.0097 12.664 28.1575 10.4393 27.6615C8.21468 27.1654 6.17732 26.0461 4.56562 24.4344C2.95393 22.8227 1.83458 20.7853 1.33853 18.5607C0.842491 16.336 0.990279 14.0161 1.7646 11.8724C2.53893 9.72868 3.90777 7.84982 5.71094 6.45567C7.51412 5.06152 9.67705 4.20974 11.9467 4C10.6179 5.79769 9.97846 8.0126 10.1447 10.2419C10.3109 12.4712 11.2718 14.5667 12.8525 16.1475C14.4332 17.7282 16.5288 18.689 18.7581 18.8553C20.9874 19.0215 23.2023 18.3821 25 17.0533Z" fill="#12082E" stroke="#12082E" stroke-width="2" stroke-linecap="round" stroke-linejoin="round"/>
</svg>
