<svg width="828" height="766" viewBox="0 0 828 766" fill="none" xmlns="http://www.w3.org/2000/svg">
<path d="M98.8823 514.782C95.3677 513.665 91.5353 511.901 87.3851 509.489C83.0339 507.424 78.0915 504.783 72.5579 501.568C35.8977 480.265 13.2421 457.154 4.59116 432.234C-4.05984 407.314 1.06007 378.599 19.9509 346.089L51.3016 292.137C56.9286 282.453 60.5694 273.003 62.2238 263.786C64.0792 254.224 63.3291 244.767 59.9734 235.415C57.1645 225.918 51.6776 216.253 43.5127 206.42C35.5488 196.24 24.6334 185.965 10.7667 175.595L37.5957 129.424C53.673 135.99 68.0048 140.386 80.5909 142.61C93.3781 144.489 104.492 144.47 113.933 142.554C123.92 140.493 132.508 136.462 139.696 130.461C146.884 124.46 153.091 116.963 158.316 107.971L189.064 55.056C207.553 23.2378 229.29 5.33531 254.275 1.34863C279.26 -2.63807 310.429 6.22075 347.781 27.9251C353.314 31.1405 358.056 34.127 362.005 36.8844C366.155 39.296 369.686 41.5791 372.598 43.7336L348.181 85.7545C332.963 76.912 319.837 70.4414 308.803 66.3426C298.114 62.4448 288.624 60.8628 280.333 61.5966C272.589 62.1855 265.597 65.0621 259.358 70.2265C253.665 75.246 248.006 82.5977 242.379 92.2815L211.932 144.678C205.099 156.437 197.86 166.109 190.214 173.694C182.914 181.481 174.487 187.225 164.934 190.926C155.582 194.282 145.249 196.142 133.934 196.507C122.82 196.525 109.832 194.992 94.9696 191.908C105.21 202.947 112.973 213.472 118.258 223.483C123.544 233.494 126.844 243.738 128.157 254.217C129.471 264.695 128.251 275.552 124.498 286.787C121.091 298.224 115.569 310.513 107.932 323.656L76.5816 377.608C71.1555 386.946 67.7438 395.604 66.3464 403.582C64.748 411.906 65.6103 419.578 68.9333 426.598C72.4011 434.164 78.4746 441.626 87.1536 448.982C96.1784 456.539 108.127 464.639 122.998 473.28L98.8823 514.782ZM479.713 680.559C494.931 689.402 507.884 695.772 518.573 699.67C529.607 703.769 539.097 705.351 547.042 704.416C555.132 704.028 562.124 701.151 568.017 695.786C574.257 690.621 580.19 683.197 585.817 673.514L619.881 614.892C626.513 603.479 633.479 593.879 640.779 586.093C648.425 578.507 657.024 572.864 666.577 569.162C676.13 565.461 686.464 563.601 697.578 563.582C708.893 563.217 721.881 564.75 736.542 568.181C726.101 557.487 718.237 547.135 712.952 537.124C707.867 526.768 704.667 516.35 703.354 505.872C702.041 495.393 703.088 484.436 706.495 473C710.248 461.764 715.942 449.575 723.579 436.433L751.011 389.224C756.638 379.54 760.15 370.71 761.548 362.732C762.945 354.754 761.91 346.981 758.442 339.415C755.32 332.049 749.247 324.588 740.222 317.03C731.543 309.674 719.767 301.675 704.896 293.034L729.313 251.013C732.627 252.476 736.359 254.413 740.509 256.824C744.86 258.89 749.803 261.531 755.336 264.746C791.65 285.848 814.133 308.858 822.784 333.778C831.781 358.899 826.834 387.714 807.943 420.224L780.21 467.952C774.583 477.636 770.942 487.086 769.288 496.302C767.633 505.519 768.21 514.875 771.019 524.372C774.174 534.07 779.834 543.836 787.999 553.669C796.164 563.502 807.079 573.777 820.745 584.494L793.916 630.665C778.039 623.753 763.708 619.357 750.92 617.478C738.133 615.6 726.846 615.518 717.06 617.233C707.619 619.149 699.305 623.108 692.117 629.109C684.929 635.11 678.621 642.779 673.195 652.117L638.83 711.258C620.341 743.076 598.604 760.979 573.619 764.965C548.634 768.952 517.465 760.093 480.113 738.389C474.58 735.173 469.838 732.187 465.889 729.429C461.739 727.018 458.308 724.562 455.597 722.061L479.713 680.559Z" fill="#39AFE9" fill-opacity="0.1"/>
</svg>
