<svg width="1884" height="1329" viewBox="0 0 1884 1329" fill="none" xmlns="http://www.w3.org/2000/svg">
<path d="M191.242 830.251L306.817 799.485L315.357 831.567L240.755 851.427L317.62 1140.17L392.222 1120.31L400.763 1152.39L285.188 1183.16L191.242 830.251ZM682.748 1042.97L757.35 1023.11L680.485 734.369L605.883 754.228L597.343 722.145L712.918 691.379L806.864 1044.29L691.289 1075.05L682.748 1042.97Z" fill="#39AFE9" fill-opacity="0.1"/>
<path d="M1038.88 699.782C1035.37 698.665 1031.54 696.901 1027.39 694.489C1023.03 692.424 1018.09 689.783 1012.56 686.568C975.898 665.265 953.242 642.154 944.591 617.234C935.94 592.314 941.06 563.599 959.951 531.089L991.302 477.137C996.929 467.453 1000.57 458.003 1002.22 448.786C1004.08 439.224 1003.33 429.767 999.974 420.415C997.165 410.918 991.678 401.253 983.513 391.42C975.549 381.24 964.634 370.965 950.767 360.595L977.596 314.424C993.673 320.99 1008 325.386 1020.59 327.61C1033.38 329.489 1044.49 329.47 1053.93 327.554C1063.92 325.493 1072.51 321.462 1079.7 315.461C1086.88 309.46 1093.09 301.963 1098.32 292.971L1129.06 240.056C1147.55 208.238 1169.29 190.335 1194.28 186.349C1219.26 182.362 1250.43 191.221 1287.78 212.925C1293.31 216.141 1298.06 219.127 1302.01 221.884C1306.16 224.296 1309.69 226.579 1312.6 228.734L1288.18 270.754C1272.96 261.912 1259.84 255.441 1248.8 251.343C1238.11 247.445 1228.62 245.863 1220.33 246.597C1212.59 247.185 1205.6 250.062 1199.36 255.227C1193.67 260.246 1188.01 267.598 1182.38 277.282L1151.93 329.678C1145.1 341.437 1137.86 351.109 1130.21 358.694C1122.91 366.481 1114.49 372.225 1104.93 375.926C1095.58 379.282 1085.25 381.142 1073.93 381.507C1062.82 381.525 1049.83 379.992 1034.97 376.908C1045.21 387.947 1052.97 398.472 1058.26 408.483C1063.54 418.494 1066.84 428.738 1068.16 439.217C1069.47 449.695 1068.25 460.552 1064.5 471.787C1061.09 483.224 1055.57 495.513 1047.93 508.656L1016.58 562.608C1011.16 571.946 1007.74 580.604 1006.35 588.582C1004.75 596.906 1005.61 604.578 1008.93 611.598C1012.4 619.164 1018.47 626.626 1027.15 633.982C1036.18 641.539 1048.13 649.639 1063 658.28L1038.88 699.782ZM1419.71 865.559C1434.93 874.402 1447.88 880.772 1458.57 884.67C1469.61 888.769 1479.1 890.351 1487.04 889.416C1495.13 889.028 1502.12 886.151 1508.02 880.786C1514.26 875.621 1520.19 868.197 1525.82 858.514L1559.88 799.892C1566.51 788.479 1573.48 778.879 1580.78 771.093C1588.43 763.507 1597.02 757.864 1606.58 754.162C1616.13 750.461 1626.46 748.601 1637.58 748.582C1648.89 748.217 1661.88 749.75 1676.54 753.181C1666.1 742.487 1658.24 732.135 1652.95 722.124C1647.87 711.768 1644.67 701.35 1643.35 690.872C1642.04 680.393 1643.09 669.436 1646.49 658C1650.25 646.764 1655.94 634.575 1663.58 621.433L1691.01 574.224C1696.64 564.54 1700.15 555.71 1701.55 547.732C1702.95 539.754 1701.91 531.981 1698.44 524.415C1695.32 517.049 1689.25 509.588 1680.22 502.03C1671.54 494.674 1659.77 486.675 1644.9 478.034L1669.31 436.013C1672.63 437.476 1676.36 439.413 1680.51 441.824C1684.86 443.89 1689.8 446.531 1695.34 449.746C1731.65 470.848 1754.13 493.858 1762.78 518.778C1771.78 543.899 1766.83 572.714 1747.94 605.224L1720.21 652.952C1714.58 662.636 1710.94 672.086 1709.29 681.302C1707.63 690.519 1708.21 699.875 1711.02 709.372C1714.17 719.07 1719.83 728.836 1728 738.669C1736.16 748.502 1747.08 758.777 1760.74 769.494L1733.92 815.665C1718.04 808.753 1703.71 804.357 1690.92 802.478C1678.13 800.6 1666.85 800.518 1657.06 802.233C1647.62 804.149 1639.3 808.108 1632.12 814.109C1624.93 820.11 1618.62 827.779 1613.2 837.117L1578.83 896.258C1560.34 928.076 1538.6 945.979 1513.62 949.965C1488.63 953.952 1457.47 945.093 1420.11 923.389C1414.58 920.173 1409.84 917.187 1405.89 914.429C1401.74 912.018 1398.31 909.562 1395.6 907.061L1419.71 865.559Z" fill="#39AFE9" fill-opacity="0.1"/>
</svg>
