<svg width="120" height="102" viewBox="0 0 120 102" fill="none" xmlns="http://www.w3.org/2000/svg">
<path d="M85.175 85.616C87.287 85.616 89.015 85.496 90.359 85.256C91.751 85.016 92.831 84.608 93.599 84.032C94.415 83.504 94.967 82.784 95.255 81.872C95.591 80.96 95.759 79.832 95.759 78.488V70.352C95.759 68.768 95.903 67.352 96.191 66.104C96.527 64.856 97.079 63.752 97.847 62.792C98.615 61.832 99.575 61.016 100.727 60.344C101.879 59.624 103.319 59 105.047 58.472C103.319 57.992 101.879 57.392 100.727 56.672C99.575 55.904 98.615 55.016 97.847 54.008C97.079 53 96.527 51.8 96.191 50.408C95.903 49.016 95.759 47.408 95.759 45.584V39.032C95.759 37.688 95.591 36.56 95.255 35.648C94.919 34.736 94.343 33.992 93.527 33.416C92.759 32.84 91.679 32.432 90.287 32.192C88.943 31.952 87.239 31.832 85.175 31.832V26C85.607 25.952 86.111 25.928 86.687 25.928C87.263 25.88 87.935 25.856 88.703 25.856C93.743 25.856 97.463 26.888 99.863 28.952C102.311 31.016 103.535 34.304 103.535 38.816V45.44C103.535 46.784 103.727 47.984 104.111 49.04C104.495 50.096 105.119 51.032 105.983 51.848C106.895 52.664 108.071 53.336 109.511 53.864C110.951 54.392 112.703 54.8 114.767 55.088V61.496C112.703 61.736 110.951 62.144 109.511 62.72C108.071 63.296 106.895 63.968 105.983 64.736C105.119 65.504 104.495 66.416 104.111 67.472C103.727 68.528 103.535 69.704 103.535 71V79.208C103.535 83.624 102.359 86.792 100.007 88.712C97.655 90.632 93.887 91.592 88.703 91.592C87.935 91.592 87.263 91.568 86.687 91.52C86.111 91.52 85.607 91.472 85.175 91.376V85.616Z" fill="#12082E"/>
<path d="M57.811 70.208C56.947 70.544 55.891 70.832 54.643 71.072C53.419 71.312 52.183 71.432 50.935 71.432C49.351 71.432 47.983 71.264 46.831 70.928C45.679 70.568 44.719 69.92 43.951 68.984C43.183 68.048 42.607 66.752 42.223 65.096C41.863 63.416 41.683 61.256 41.683 58.616C41.683 55.976 41.899 53.816 42.331 52.136C42.787 50.432 43.435 49.1 44.275 48.14C45.139 47.18 46.171 46.52 47.371 46.16C48.571 45.776 49.927 45.584 51.439 45.584C52.495 45.584 53.515 45.656 54.499 45.8C55.507 45.944 56.455 46.148 57.343 46.412L57.019 48.608C56.083 48.392 55.159 48.224 54.247 48.104C53.359 47.96 52.447 47.888 51.511 47.888C50.407 47.888 49.423 48.02 48.559 48.284C47.695 48.548 46.963 49.064 46.363 49.832C45.763 50.6 45.295 51.68 44.959 53.072C44.647 54.44 44.491 56.24 44.491 58.472C44.491 60.728 44.635 62.564 44.923 63.98C45.211 65.372 45.631 66.452 46.183 67.22C46.735 67.988 47.407 68.504 48.199 68.768C49.015 69.008 49.963 69.128 51.043 69.128C51.883 69.128 52.627 69.068 53.275 68.948C53.947 68.804 54.523 68.636 55.003 68.444V59.228H49.783V56.996H57.811V70.208ZM62.268 45.98H69.72C71.28 45.98 72.612 46.076 73.716 46.268C74.844 46.46 75.768 46.82 76.488 47.348C77.208 47.876 77.736 48.596 78.072 49.508C78.432 50.42 78.612 51.596 78.612 53.036C78.612 54.476 78.432 55.7 78.072 56.708C77.712 57.692 77.148 58.508 76.38 59.156C75.636 59.78 74.676 60.236 73.5 60.524C72.348 60.812 70.956 60.956 69.324 60.956H66.624V71H62.268V45.98ZM69.504 57.644C71.136 57.644 72.336 57.296 73.104 56.6C73.896 55.904 74.292 54.776 74.292 53.216C74.292 52.448 74.208 51.812 74.04 51.308C73.872 50.78 73.596 50.372 73.212 50.084C72.828 49.796 72.336 49.592 71.736 49.472C71.136 49.352 70.428 49.292 69.612 49.292H66.624V57.644H69.504Z" fill="#12082E"/>
<path d="M34.839 91.376C34.407 91.472 33.903 91.52 33.327 91.52C32.751 91.568 32.079 91.592 31.311 91.592C26.223 91.592 22.479 90.56 20.079 88.496C17.679 86.432 16.479 83.144 16.479 78.632V71.144C16.479 69.8 16.287 68.6 15.903 67.544C15.519 66.44 14.871 65.504 13.959 64.736C13.095 63.92 11.943 63.248 10.503 62.72C9.06303 62.144 7.31103 61.736 5.24703 61.496V55.088C7.31103 54.8 9.06303 54.392 10.503 53.864C11.943 53.288 13.095 52.616 13.959 51.848C14.871 51.032 15.519 50.096 15.903 49.04C16.287 47.984 16.479 46.832 16.479 45.584V38.24C16.479 33.824 17.655 30.656 20.007 28.736C22.359 26.816 26.127 25.856 31.311 25.856C32.079 25.856 32.751 25.88 33.327 25.928C33.903 25.928 34.407 25.952 34.839 26V31.832C32.727 31.832 30.975 31.952 29.583 32.192C28.239 32.432 27.159 32.84 26.343 33.416C25.575 33.944 25.023 34.664 24.687 35.576C24.399 36.44 24.255 37.544 24.255 38.888V46.16C24.255 47.792 24.087 49.232 23.751 50.48C23.463 51.728 22.935 52.832 22.167 53.792C21.399 54.704 20.439 55.52 19.287 56.24C18.135 56.912 16.695 57.536 14.967 58.112C16.695 58.64 18.135 59.264 19.287 59.984C20.439 60.704 21.399 61.568 22.167 62.576C22.935 63.584 23.463 64.784 23.751 66.176C24.087 67.568 24.255 69.176 24.255 71V78.488C24.255 79.784 24.423 80.888 24.759 81.8C25.095 82.76 25.647 83.504 26.415 84.032C27.231 84.608 28.311 85.016 29.655 85.256C31.047 85.496 32.775 85.616 34.839 85.616V91.376Z" fill="#12082E"/>
</svg>
