<svg width="354" height="102" viewBox="0 0 354 102" fill="none" xmlns="http://www.w3.org/2000/svg">
<path d="M319.175 85.616C321.287 85.616 323.015 85.496 324.359 85.256C325.751 85.016 326.831 84.608 327.599 84.032C328.415 83.504 328.967 82.784 329.255 81.872C329.591 80.96 329.759 79.832 329.759 78.488V70.352C329.759 68.768 329.903 67.352 330.191 66.104C330.527 64.856 331.079 63.752 331.847 62.792C332.615 61.832 333.575 61.016 334.727 60.344C335.879 59.624 337.319 59 339.047 58.472C337.319 57.992 335.879 57.392 334.727 56.672C333.575 55.904 332.615 55.016 331.847 54.008C331.079 53 330.527 51.8 330.191 50.408C329.903 49.016 329.759 47.408 329.759 45.584V39.032C329.759 37.688 329.591 36.56 329.255 35.648C328.919 34.736 328.343 33.992 327.527 33.416C326.759 32.84 325.679 32.432 324.287 32.192C322.943 31.952 321.239 31.832 319.175 31.832V26C319.607 25.952 320.111 25.928 320.687 25.928C321.263 25.88 321.935 25.856 322.703 25.856C327.743 25.856 331.463 26.888 333.863 28.952C336.311 31.016 337.535 34.304 337.535 38.816V45.44C337.535 46.784 337.727 47.984 338.111 49.04C338.495 50.096 339.119 51.032 339.983 51.848C340.895 52.664 342.071 53.336 343.511 53.864C344.951 54.392 346.703 54.8 348.767 55.088V61.496C346.703 61.736 344.951 62.144 343.511 62.72C342.071 63.296 340.895 63.968 339.983 64.736C339.119 65.504 338.495 66.416 338.111 67.472C337.727 68.528 337.535 69.704 337.535 71V79.208C337.535 83.624 336.359 86.792 334.007 88.712C331.655 90.632 327.887 91.592 322.703 91.592C321.935 91.592 321.263 91.568 320.687 91.52C320.111 91.52 319.607 91.472 319.175 91.376V85.616Z" fill="#12082E"/>
<path d="M56.0532 70.208C55.1892 70.544 54.1332 70.832 52.8852 71.072C51.6612 71.312 50.4252 71.432 49.1772 71.432C47.5932 71.432 46.2252 71.264 45.0732 70.928C43.9212 70.568 42.9612 69.92 42.1932 68.984C41.4252 68.048 40.8492 66.752 40.4652 65.096C40.1052 63.416 39.9252 61.256 39.9252 58.616C39.9252 55.976 40.1412 53.816 40.5732 52.136C41.0292 50.432 41.6772 49.1 42.5172 48.14C43.3812 47.18 44.4132 46.52 45.6132 46.16C46.8132 45.776 48.1692 45.584 49.6812 45.584C50.7372 45.584 51.7572 45.656 52.7412 45.8C53.7492 45.944 54.6972 46.148 55.5852 46.412L55.2612 48.608C54.3252 48.392 53.4012 48.224 52.4892 48.104C51.6012 47.96 50.6892 47.888 49.7532 47.888C48.6492 47.888 47.6652 48.02 46.8012 48.284C45.9372 48.548 45.2052 49.064 44.6052 49.832C44.0052 50.6 43.5372 51.68 43.2012 53.072C42.8892 54.44 42.7332 56.24 42.7332 58.472C42.7332 60.728 42.8772 62.564 43.1652 63.98C43.4532 65.372 43.8732 66.452 44.4252 67.22C44.9772 67.988 45.6492 68.504 46.4412 68.768C47.2572 69.008 48.2052 69.128 49.2852 69.128C50.1252 69.128 50.8692 69.068 51.5172 68.948C52.1892 68.804 52.7652 68.636 53.2452 68.444V59.228H48.0252V56.996H56.0532V70.208ZM74.9462 70.496C74.0342 70.76 73.0622 70.964 72.0302 71.108C71.0222 71.276 69.9062 71.36 68.6822 71.36C67.4582 71.36 66.3422 71.24 65.3342 71C64.3502 70.76 63.5102 70.316 62.8142 69.668C62.1182 69.02 61.5782 68.108 61.1942 66.932C60.8342 65.732 60.6542 64.172 60.6542 62.252C60.6542 60.38 60.8462 58.844 61.2302 57.644C61.6142 56.444 62.1542 55.496 62.8502 54.8C63.5702 54.08 64.4222 53.576 65.4062 53.288C66.3902 53 67.4822 52.856 68.6822 52.856C69.8102 52.856 70.8062 52.988 71.6702 53.252C72.5342 53.492 73.2662 53.924 73.8662 54.548C74.4662 55.148 74.9102 55.976 75.1982 57.032C75.4862 58.088 75.6302 59.432 75.6302 61.064C75.6302 61.352 75.6302 61.628 75.6302 61.892C75.6302 62.132 75.6182 62.42 75.5942 62.756H63.4982C63.4982 64.148 63.6182 65.264 63.8582 66.104C64.1222 66.944 64.4942 67.592 64.9742 68.048C65.4542 68.48 66.0422 68.768 66.7382 68.912C67.4582 69.056 68.2862 69.128 69.2222 69.128C70.2782 69.128 71.2382 69.056 72.1022 68.912C72.9662 68.768 73.8182 68.588 74.6582 68.372L74.9462 70.496ZM73.0022 60.776C73.0022 59.6 72.8942 58.64 72.6782 57.896C72.4862 57.152 72.1982 56.576 71.8142 56.168C71.4302 55.736 70.9622 55.448 70.4102 55.304C69.8582 55.136 69.2342 55.052 68.5382 55.052C67.8182 55.052 67.1462 55.136 66.5222 55.304C65.9222 55.472 65.4062 55.772 64.9742 56.204C64.5422 56.636 64.1942 57.224 63.9302 57.968C63.6902 58.688 63.5462 59.624 63.4982 60.776H73.0022ZM87.5752 55.736C88.6312 54.848 89.6272 54.152 90.5632 53.648C91.4992 53.12 92.4952 52.856 93.5512 52.856C94.1752 52.856 94.7392 52.916 95.2432 53.036C95.7472 53.132 96.2512 53.3 96.7552 53.54L96.1432 56.24C95.7112 55.976 95.2432 55.772 94.7392 55.628C94.2592 55.484 93.6952 55.412 93.0472 55.412C92.6392 55.412 92.2432 55.472 91.8592 55.592C91.4752 55.688 91.0672 55.844 90.6352 56.06C90.2272 56.276 89.7952 56.54 89.3392 56.852C88.8832 57.164 88.3672 57.536 87.7912 57.968V68.84H93.8392V71H80.0512V68.84H84.9832V55.52H80.2672V53.36H87.3592L87.5752 55.736ZM99.2681 53.36H101.464L101.644 55.124C102.244 54.5 102.868 53.996 103.516 53.612C104.164 53.204 104.86 53 105.604 53C106.396 53 107.044 53.204 107.548 53.612C108.076 54.02 108.46 54.548 108.7 55.196C109.348 54.572 109.996 54.056 110.644 53.648C111.316 53.216 112.036 53 112.804 53C113.26 53 113.692 53.084 114.1 53.252C114.532 53.42 114.904 53.684 115.216 54.044C115.552 54.404 115.804 54.86 115.972 55.412C116.164 55.964 116.26 56.648 116.26 57.464V71H113.632V58.004C113.632 57.476 113.596 57.044 113.524 56.708C113.452 56.348 113.344 56.072 113.2 55.88C113.056 55.664 112.888 55.52 112.696 55.448C112.504 55.352 112.3 55.304 112.084 55.304C111.652 55.304 111.196 55.46 110.716 55.772C110.26 56.084 109.696 56.588 109.024 57.284C109.048 57.428 109.06 57.56 109.06 57.68C109.06 57.8 109.06 57.932 109.06 58.076V71H106.468V58.004C106.468 57.476 106.42 57.044 106.324 56.708C106.252 56.348 106.144 56.072 106 55.88C105.856 55.664 105.688 55.52 105.496 55.448C105.304 55.352 105.1 55.304 104.884 55.304C104.452 55.304 104.008 55.46 103.552 55.772C103.096 56.084 102.532 56.588 101.86 57.284V71H99.2681V53.36ZM131.445 58.544C131.445 57.44 131.109 56.612 130.437 56.06C129.789 55.508 128.769 55.232 127.377 55.232C126.489 55.232 125.589 55.292 124.677 55.412C123.765 55.508 122.853 55.664 121.941 55.88L121.689 53.756C122.649 53.516 123.645 53.336 124.677 53.216C125.709 53.072 126.765 53 127.845 53C128.973 53 129.945 53.12 130.761 53.36C131.577 53.576 132.237 53.912 132.741 54.368C133.269 54.824 133.653 55.388 133.893 56.06C134.133 56.732 134.253 57.512 134.253 58.4V71H131.913L131.733 69.308C130.725 69.86 129.681 70.34 128.601 70.748C127.545 71.156 126.417 71.36 125.217 71.36C123.633 71.36 122.337 70.952 121.329 70.136C120.321 69.32 119.817 68.048 119.817 66.32C119.817 65.384 119.961 64.568 120.249 63.872C120.561 63.152 121.077 62.54 121.797 62.036C122.541 61.532 123.513 61.16 124.713 60.92C125.913 60.656 127.401 60.524 129.177 60.524H131.445V58.544ZM129.285 62.504C127.917 62.504 126.789 62.576 125.901 62.72C125.037 62.864 124.341 63.092 123.813 63.404C123.285 63.692 122.913 64.064 122.697 64.52C122.505 64.976 122.409 65.504 122.409 66.104C122.409 67.208 122.709 68 123.309 68.48C123.909 68.96 124.725 69.2 125.757 69.2C126.741 69.2 127.665 69.044 128.529 68.732C129.393 68.396 130.365 67.916 131.445 67.292V62.504H129.285ZM130.401 44.036L132.237 45.872L127.413 50.48L126.081 49.112L130.401 44.036ZM140.294 53.36H142.598L142.814 55.232C143.774 54.584 144.794 54.056 145.874 53.648C146.954 53.216 148.07 53 149.222 53C150.878 53 152.162 53.456 153.074 54.368C153.986 55.28 154.442 56.768 154.442 58.832V71H151.634V59.3C151.634 57.788 151.334 56.744 150.734 56.168C150.158 55.592 149.402 55.304 148.466 55.304C147.602 55.304 146.714 55.484 145.802 55.844C144.914 56.204 144.014 56.72 143.102 57.392V71H140.294V53.36ZM159.475 45.98H166.927C168.487 45.98 169.819 46.076 170.923 46.268C172.051 46.46 172.975 46.82 173.695 47.348C174.415 47.876 174.943 48.596 175.279 49.508C175.639 50.42 175.819 51.596 175.819 53.036C175.819 54.476 175.639 55.7 175.279 56.708C174.919 57.692 174.355 58.508 173.587 59.156C172.843 59.78 171.883 60.236 170.707 60.524C169.555 60.812 168.163 60.956 166.531 60.956H163.831V71H159.475V45.98ZM166.711 57.644C168.343 57.644 169.543 57.296 170.311 56.6C171.103 55.904 171.499 54.776 171.499 53.216C171.499 52.448 171.415 51.812 171.247 51.308C171.079 50.78 170.803 50.372 170.419 50.084C170.035 49.796 169.543 49.592 168.943 49.472C168.343 49.352 167.635 49.292 166.819 49.292H163.831V57.644H166.711ZM194.064 70.532C193.104 70.796 192.084 71 191.004 71.144C189.948 71.288 188.784 71.36 187.512 71.36C186.168 71.36 184.968 71.24 183.912 71C182.856 70.76 181.968 70.316 181.248 69.668C180.528 68.996 179.976 68.072 179.592 66.896C179.208 65.696 179.016 64.136 179.016 62.216C179.016 60.368 179.22 58.832 179.628 57.608C180.036 56.384 180.612 55.412 181.356 54.692C182.1 53.948 182.988 53.432 184.02 53.144C185.076 52.832 186.216 52.676 187.44 52.676C188.688 52.676 189.768 52.808 190.68 53.072C191.592 53.312 192.348 53.744 192.948 54.368C193.572 54.968 194.028 55.796 194.316 56.852C194.628 57.908 194.784 59.24 194.784 60.848C194.784 61.256 194.772 61.664 194.748 62.072C194.748 62.456 194.724 62.864 194.676 63.296H183.336C183.36 64.328 183.468 65.156 183.66 65.78C183.876 66.404 184.176 66.884 184.56 67.22C184.968 67.556 185.484 67.784 186.108 67.904C186.732 68.024 187.464 68.084 188.304 68.084C189.312 68.084 190.236 68.024 191.076 67.904C191.94 67.76 192.816 67.58 193.704 67.364L194.064 70.532ZM190.932 60.488C190.932 59.576 190.848 58.82 190.68 58.22C190.536 57.62 190.308 57.164 189.996 56.852C189.684 56.516 189.3 56.288 188.844 56.168C188.412 56.024 187.908 55.952 187.332 55.952C186.732 55.952 186.192 56.024 185.712 56.168C185.232 56.312 184.812 56.552 184.452 56.888C184.116 57.224 183.852 57.692 183.66 58.292C183.468 58.868 183.36 59.6 183.336 60.488H190.932ZM199.169 53.18H202.697L202.985 55.016C203.945 54.368 204.917 53.852 205.901 53.468C206.885 53.06 207.941 52.856 209.069 52.856C210.797 52.856 212.105 53.324 212.993 54.26C213.881 55.172 214.325 56.66 214.325 58.724V71H210.005V59.588C210.005 58.34 209.789 57.488 209.357 57.032C208.949 56.552 208.385 56.312 207.665 56.312C207.017 56.312 206.345 56.468 205.649 56.78C204.953 57.068 204.233 57.5 203.489 58.076V71H199.169V53.18ZM200.681 48.284C200.873 47.9 201.101 47.516 201.365 47.132C201.629 46.748 201.929 46.412 202.265 46.124C202.625 45.812 203.009 45.572 203.417 45.404C203.849 45.212 204.317 45.116 204.821 45.116C205.277 45.116 205.697 45.212 206.081 45.404C206.465 45.572 206.813 45.764 207.125 45.98C207.461 46.196 207.773 46.4 208.061 46.592C208.349 46.76 208.649 46.844 208.961 46.844C209.369 46.844 209.705 46.688 209.969 46.376C210.233 46.064 210.473 45.668 210.689 45.188L212.777 46.7C212.585 47.084 212.357 47.468 212.093 47.852C211.829 48.236 211.517 48.572 211.157 48.86C210.821 49.148 210.437 49.388 210.005 49.58C209.597 49.772 209.141 49.868 208.637 49.868C208.157 49.868 207.725 49.784 207.341 49.616C206.981 49.424 206.633 49.22 206.297 49.004C205.985 48.788 205.685 48.596 205.397 48.428C205.109 48.26 204.821 48.176 204.533 48.176C204.101 48.176 203.753 48.332 203.489 48.644C203.225 48.932 202.985 49.316 202.769 49.796L200.681 48.284ZM223.174 53.18V64.592C223.174 65.84 223.378 66.704 223.786 67.184C224.218 67.64 224.794 67.868 225.514 67.868C226.162 67.868 226.834 67.724 227.53 67.436C228.226 67.124 228.946 66.68 229.69 66.104V53.18H234.01V71H230.482L230.194 69.164C229.714 69.5 229.234 69.8 228.754 70.064C228.274 70.328 227.782 70.556 227.278 70.748C226.774 70.94 226.258 71.084 225.73 71.18C225.226 71.3 224.686 71.36 224.11 71.36C222.382 71.36 221.074 70.904 220.186 69.992C219.298 69.056 218.854 67.556 218.854 65.492V53.18H223.174ZM238.755 53.18H242.283L242.571 55.016C243.531 54.368 244.503 53.852 245.487 53.468C246.471 53.06 247.527 52.856 248.655 52.856C250.383 52.856 251.691 53.324 252.579 54.26C253.467 55.172 253.911 56.66 253.911 58.724V71H249.591V59.588C249.591 58.34 249.375 57.488 248.943 57.032C248.535 56.552 247.971 56.312 247.251 56.312C246.603 56.312 245.931 56.468 245.235 56.78C244.539 57.068 243.819 57.5 243.075 58.076V71H238.755V53.18ZM240.267 48.284C240.459 47.9 240.687 47.516 240.951 47.132C241.215 46.748 241.515 46.412 241.851 46.124C242.211 45.812 242.595 45.572 243.003 45.404C243.435 45.212 243.903 45.116 244.407 45.116C244.863 45.116 245.283 45.212 245.667 45.404C246.051 45.572 246.399 45.764 246.711 45.98C247.047 46.196 247.359 46.4 247.647 46.592C247.935 46.76 248.235 46.844 248.547 46.844C248.955 46.844 249.291 46.688 249.555 46.376C249.819 46.064 250.059 45.668 250.275 45.188L252.363 46.7C252.171 47.084 251.943 47.468 251.679 47.852C251.415 48.236 251.103 48.572 250.743 48.86C250.407 49.148 250.023 49.388 249.591 49.58C249.183 49.772 248.727 49.868 248.223 49.868C247.743 49.868 247.311 49.784 246.927 49.616C246.567 49.424 246.219 49.22 245.883 49.004C245.571 48.788 245.271 48.596 244.983 48.428C244.695 48.26 244.407 48.176 244.119 48.176C243.687 48.176 243.339 48.332 243.075 48.644C242.811 48.932 242.571 49.316 242.355 49.796L240.267 48.284ZM262.76 53.18V64.592C262.76 65.84 262.964 66.704 263.372 67.184C263.804 67.64 264.38 67.868 265.1 67.868C265.748 67.868 266.42 67.724 267.116 67.436C267.812 67.124 268.532 66.68 269.276 66.104V53.18H273.596V71H270.068L269.78 69.164C269.3 69.5 268.82 69.8 268.34 70.064C267.86 70.328 267.368 70.556 266.864 70.748C266.36 70.94 265.844 71.084 265.316 71.18C264.812 71.3 264.272 71.36 263.696 71.36C261.968 71.36 260.66 70.904 259.772 69.992C258.884 69.056 258.44 67.556 258.44 65.492V53.18H262.76ZM286.189 55.448C287.197 54.56 288.157 53.876 289.069 53.396C289.981 52.916 290.917 52.676 291.877 52.676C292.477 52.676 293.017 52.736 293.497 52.856C293.977 52.952 294.445 53.12 294.901 53.36L294.217 57.248C293.809 57.008 293.365 56.816 292.885 56.672C292.405 56.528 291.877 56.456 291.301 56.456C290.917 56.456 290.545 56.504 290.185 56.6C289.849 56.696 289.489 56.84 289.105 57.032C288.745 57.2 288.361 57.428 287.953 57.716C287.569 57.98 287.125 58.28 286.621 58.616V67.796H291.949V71H277.837V67.796H282.301V56.42H278.053V53.18H285.901L286.189 55.448ZM297.846 67.796H304.542V56.42H298.062V53.18H308.862V67.796H313.758V71H297.846V67.796ZM309.402 47.42C309.402 47.9 309.354 48.296 309.258 48.608C309.186 48.92 309.042 49.172 308.826 49.364C308.634 49.556 308.358 49.688 307.998 49.76C307.662 49.832 307.218 49.868 306.666 49.868C306.138 49.868 305.694 49.832 305.334 49.76C304.974 49.688 304.686 49.556 304.47 49.364C304.254 49.172 304.11 48.92 304.038 48.608C303.966 48.296 303.93 47.9 303.93 47.42C303.93 46.964 303.966 46.58 304.038 46.268C304.11 45.932 304.254 45.68 304.47 45.512C304.686 45.32 304.974 45.176 305.334 45.08C305.694 44.984 306.138 44.936 306.666 44.936C307.218 44.936 307.662 44.984 307.998 45.08C308.358 45.176 308.634 45.32 308.826 45.512C309.042 45.68 309.186 45.932 309.258 46.268C309.354 46.58 309.402 46.964 309.402 47.42Z" fill="#12082E"/>
<path d="M34.839 91.376C34.407 91.472 33.903 91.52 33.327 91.52C32.751 91.568 32.079 91.592 31.311 91.592C26.223 91.592 22.479 90.56 20.079 88.496C17.679 86.432 16.479 83.144 16.479 78.632V71.144C16.479 69.8 16.287 68.6 15.903 67.544C15.519 66.44 14.871 65.504 13.959 64.736C13.095 63.92 11.943 63.248 10.503 62.72C9.06303 62.144 7.31103 61.736 5.24703 61.496V55.088C7.31103 54.8 9.06303 54.392 10.503 53.864C11.943 53.288 13.095 52.616 13.959 51.848C14.871 51.032 15.519 50.096 15.903 49.04C16.287 47.984 16.479 46.832 16.479 45.584V38.24C16.479 33.824 17.655 30.656 20.007 28.736C22.359 26.816 26.127 25.856 31.311 25.856C32.079 25.856 32.751 25.88 33.327 25.928C33.903 25.928 34.407 25.952 34.839 26V31.832C32.727 31.832 30.975 31.952 29.583 32.192C28.239 32.432 27.159 32.84 26.343 33.416C25.575 33.944 25.023 34.664 24.687 35.576C24.399 36.44 24.255 37.544 24.255 38.888V46.16C24.255 47.792 24.087 49.232 23.751 50.48C23.463 51.728 22.935 52.832 22.167 53.792C21.399 54.704 20.439 55.52 19.287 56.24C18.135 56.912 16.695 57.536 14.967 58.112C16.695 58.64 18.135 59.264 19.287 59.984C20.439 60.704 21.399 61.568 22.167 62.576C22.935 63.584 23.463 64.784 23.751 66.176C24.087 67.568 24.255 69.176 24.255 71V78.488C24.255 79.784 24.423 80.888 24.759 81.8C25.095 82.76 25.647 83.504 26.415 84.032C27.231 84.608 28.311 85.016 29.655 85.256C31.047 85.496 32.775 85.616 34.839 85.616V91.376Z" fill="#12082E"/>
</svg>
