<svg width="1237" height="549" viewBox="0 0 1237 549" fill="none" xmlns="http://www.w3.org/2000/svg">
<path d="M247.334 546.8C243.734 547.6 239.534 548 234.734 548C229.934 548.4 224.334 548.6 217.934 548.6C175.534 548.6 144.334 540 124.334 522.8C104.334 505.6 94.3344 478.2 94.3344 440.6V378.2C94.3344 367 92.7344 357 89.5344 348.2C86.3344 339 80.9344 331.2 73.3344 324.8C66.1344 318 56.5344 312.4 44.5344 308C32.5344 303.2 17.9344 299.8 0.734375 297.8V244.4C17.9344 242 32.5344 238.6 44.5344 234.2C56.5344 229.4 66.1344 223.8 73.3344 217.4C80.9344 210.6 86.3344 202.8 89.5344 194C92.7344 185.2 94.3344 175.6 94.3344 165.2V104C94.3344 67.2 104.134 40.8 123.734 24.8C143.334 8.79998 174.734 0.79998 217.934 0.79998C224.334 0.79998 229.934 0.999977 234.734 1.39997C239.534 1.39997 243.734 1.59997 247.334 1.99996V50.6C229.734 50.6 215.134 51.6 203.534 53.6C192.334 55.6 183.334 59 176.534 63.8C170.134 68.2 165.534 74.2 162.734 81.8C160.334 89 159.134 98.2 159.134 109.4V170C159.134 183.6 157.734 195.6 154.934 206C152.534 216.4 148.134 225.6 141.734 233.6C135.334 241.2 127.334 248 117.734 254C108.134 259.6 96.1344 264.8 81.7344 269.6C96.1344 274 108.134 279.2 117.734 285.2C127.334 291.2 135.334 298.4 141.734 306.8C148.134 315.2 152.534 325.2 154.934 336.8C157.734 348.4 159.134 361.8 159.134 377V439.4C159.134 450.2 160.534 459.4 163.334 467C166.134 475 170.734 481.2 177.134 485.6C183.934 490.4 192.934 493.8 204.134 495.8C215.734 497.8 230.134 498.8 247.334 498.8V546.8ZM989.783 498.8C1007.38 498.8 1021.78 497.8 1032.98 495.8C1044.58 493.8 1053.58 490.4 1059.98 485.6C1066.78 481.2 1071.38 475.2 1073.78 467.6C1076.58 460 1077.98 450.6 1077.98 439.4V371.6C1077.98 358.4 1079.18 346.6 1081.58 336.2C1084.38 325.8 1088.98 316.6 1095.38 308.6C1101.78 300.6 1109.78 293.8 1119.38 288.2C1128.98 282.2 1140.98 277 1155.38 272.6C1140.98 268.6 1128.98 263.6 1119.38 257.6C1109.78 251.2 1101.78 243.8 1095.38 235.4C1088.98 227 1084.38 217 1081.58 205.4C1079.18 193.8 1077.98 180.4 1077.98 165.2V110.6C1077.98 99.4 1076.58 90 1073.78 82.4C1070.98 74.8 1066.18 68.6 1059.38 63.8C1052.98 59 1043.98 55.6 1032.38 53.6C1021.18 51.6 1006.98 50.6 989.783 50.6V1.99996C993.383 1.59997 997.583 1.39997 1002.38 1.39997C1007.18 0.999977 1012.78 0.79998 1019.18 0.79998C1061.18 0.79998 1092.18 9.39998 1112.18 26.6C1132.58 43.8 1142.78 71.2 1142.78 108.8V164C1142.78 175.2 1144.38 185.2 1147.58 194C1150.78 202.8 1155.98 210.6 1163.18 217.4C1170.78 224.2 1180.58 229.8 1192.58 234.2C1204.58 238.6 1219.18 242 1236.38 244.4V297.8C1219.18 299.8 1204.58 303.2 1192.58 308C1180.58 312.8 1170.78 318.4 1163.18 324.8C1155.98 331.2 1150.78 338.8 1147.58 347.6C1144.38 356.4 1142.78 366.2 1142.78 377V445.4C1142.78 482.2 1132.98 508.6 1113.38 524.6C1093.78 540.6 1062.38 548.6 1019.18 548.6C1012.78 548.6 1007.18 548.4 1002.38 548C997.583 548 993.383 547.6 989.783 546.8V498.8Z" fill="#FF5070" fill-opacity="0.1"/>
</svg>
