<svg width="28" height="28" viewBox="0 0 28 28" fill="none" xmlns="http://www.w3.org/2000/svg">
<path d="M18.6667 9.33333C20.5232 9.33333 22.3037 10.0708 23.6164 11.3836C24.9292 12.6963 25.6667 14.4768 25.6667 16.3333V24.5H21V16.3333C21 15.7145 20.7542 15.121 20.3166 14.6834C19.879 14.2458 19.2855 14 18.6667 14C18.0478 14 17.4544 14.2458 17.0168 14.6834C16.5792 15.121 16.3334 15.7145 16.3334 16.3333V24.5H11.6667V16.3333C11.6667 14.4768 12.4042 12.6963 13.7169 11.3836C15.0297 10.0708 16.8102 9.33333 18.6667 9.33333V9.33333Z" stroke="black" stroke-width="2" stroke-linecap="round" stroke-linejoin="round"/>
<path d="M6.99998 10.5H2.33331V24.5H6.99998V10.5Z" stroke="black" stroke-width="2" stroke-linecap="round" stroke-linejoin="round"/>
<path d="M4.66665 7C5.95531 7 6.99998 5.95533 6.99998 4.66666C6.99998 3.378 5.95531 2.33333 4.66665 2.33333C3.37798 2.33333 2.33331 3.378 2.33331 4.66666C2.33331 5.95533 3.37798 7 4.66665 7Z" stroke="black" stroke-width="2" stroke-linecap="round" stroke-linejoin="round"/>
</svg>
